<svg width="94" height="20" viewBox="0 0 94 20" fill="none" xmlns="http://www.w3.org/2000/svg">
<g id="Type=horizontal">
<g id="TextLogo">
<path id="Vector" d="M83.4994 11.7027C83.4994 8.40107 85.5091 6.35548 88.416 6.35548C91.3947 6.35548 93.1173 8.54462 93.1173 11.7386L93.0455 12.7255H86.5678C86.6396 13.6406 87.5188 14.1431 88.5416 14.1431C89.4747 14.1431 90.1207 13.7663 90.6949 13.0664L92.7225 14.8249C91.6638 16.2784 90.2283 16.9423 88.416 16.9423C85.5271 16.9423 83.4456 14.9326 83.4994 11.7027ZM90.0848 10.3211C89.9592 9.49564 89.2414 9.10088 88.434 9.10088C87.5368 9.10088 86.8549 9.54947 86.7473 10.3211H90.0848Z" fill="#212121"/>
<path id="Vector_2" d="M83.3831 6.62465V9.58537H83.096C82.3603 9.58537 81.5887 9.78275 80.9427 10.2493V16.5834H77.7487V6.71437H80.9427V7.43212C81.6066 6.92969 82.1988 6.71437 83.0601 6.62465H83.3831Z" fill="#212121"/>
<path id="Vector_3" d="M73.6823 16.5834V15.7221C73.0902 16.3322 72.1571 16.709 71.1164 16.709C68.4966 16.709 66.3792 15.0941 66.4689 11.5951C66.5766 8.06014 68.8016 6.40932 71.242 6.51698C72.2827 6.57081 73.144 7.03735 73.6823 7.61155V6.71436H76.7866V16.5834H73.6823ZM71.4932 13.9636C72.5519 13.9636 73.3593 13.4612 73.5747 12.3666C73.5926 12.2949 73.6105 11.9539 73.6105 11.8822C73.6105 10.1954 72.7134 9.26237 71.565 9.26237C70.596 9.20854 69.5732 9.98012 69.5732 11.5951C69.5732 13.1562 70.3986 13.9636 71.4932 13.9636Z" fill="#212121"/>
<path id="Vector_4" d="M62.5748 3H65.697V16.5834H62.5748V3Z" fill="#212121"/>
<path id="Vector_5" d="M51.7415 16.5834V3.26917H61.7182V6.14017H54.9534V8.74201H58.5243C59.8341 8.74201 60.516 8.70612 61.3773 8.59846V11.3797C60.5698 11.5771 59.1343 11.5951 58.1295 11.5951H54.9534V16.5834H51.7415Z" fill="#212121"/>
<path id="Vector_6" d="M45.43 13.4433C46.722 13.4253 47.4218 12.582 47.4218 11.4694C47.4218 9.90834 46.5066 9.19059 45.43 9.13676C44.5508 9.08293 43.51 9.65713 43.4383 11.308C43.3665 12.7793 44.3175 13.4612 45.43 13.4433ZM50.6158 14.8788C50.6158 16.727 50.3645 17.9651 48.929 18.9879C47.8165 19.7415 46.2195 19.903 44.6225 19.8312C43.528 19.7774 42.1104 19.4544 40.7826 18.6828L42.0745 16.2425C43.3127 16.9423 44.479 17.3191 45.8607 17.1756C47.0629 17.032 47.4756 16.3322 47.4756 15.6862V15.2556C47.0091 15.758 45.9863 16.0989 44.9455 16.0989C42.8282 16.0989 40.2802 14.6814 40.3878 11.4515C40.5134 7.89864 42.6487 6.35548 45.125 6.48109C46.1657 6.51697 46.9552 6.89379 47.4756 7.41416V6.71436H50.6158V14.8788Z" fill="#212121"/>
<path id="Vector_7" d="M34.4736 13.9816C35.6759 13.9816 36.7704 13.21 36.7704 11.6309C36.7704 10.1237 35.6759 9.28032 34.4736 9.28032C33.3073 9.28032 32.2486 10.1237 32.2486 11.6309C32.2486 13.21 33.3073 13.9816 34.4736 13.9816ZM34.5095 16.8167C31.3694 16.8167 29.1443 14.7532 29.1443 11.6309C29.1443 8.38313 31.5668 6.44521 34.5095 6.44521C37.4523 6.44521 39.8747 8.38313 39.8747 11.6309C39.8747 14.7532 37.6497 16.8167 34.5095 16.8167Z" fill="#212121"/>
<path id="Vector_8" d="M25.6523 16.5834H20V3.26917H23.194V13.6945H26.065C27.3928 13.6945 28.0747 13.6048 28.918 13.4971V16.3322C28.1285 16.5296 26.6751 16.5834 25.6523 16.5834Z" fill="#212121"/>
</g>
<g id="IconLogo">
<g id="Group 34424">
<g id="Group 34429">
<path id="Vector 801" d="M7.39885 16.2672C7.26673 14.5497 8.2246 12.4523 8.96777 11.5605C10.3975 9.84473 12.4619 7.59687 15.2695 7.01884C13.9483 10.487 15.2695 12.9642 15.2695 14.6157C15.2695 18.7445 11.0597 20.1757 8.80262 19.9831C8.38975 19.4601 7.53097 17.9848 7.39885 16.2672Z" fill="url(#paint0_linear_62_1769)"/>
<path id="Vector 804" d="M9.13441 16.4166C9.18838 17.3342 9.69662 17.9684 9.944 18.1708C10.4837 18.4406 11.1161 18.4634 12.2378 17.6985C13.7221 16.6865 12.4971 12.8595 10.8105 13.1294C9.1238 13.3992 9.06694 15.2697 9.13441 16.4166Z" fill="#B8EEC7"/>
</g>
<g id="Group 34408">
<path id="Vector 800" d="M0.462564 15.3589C1.59261 18.1664 5.94002 19.5977 7.72914 19.8179C7.20616 19.2674 6.22628 17.5058 6.49052 14.8634C6.82082 11.5605 10.2064 9.82639 10.2064 7.184C10.2724 4.27737 6.82082 1.18357 5.08675 0C5.33447 1.65149 4.50872 4.21131 2.44436 7.184C0.37999 10.1567 -0.667482 12.5514 0.462564 15.3589Z" fill="url(#paint1_linear_62_1769)"/>
<path id="Vector 806" d="M5.24076 17.6395C2.5158 16.7312 1.02946 14.5842 1.35975 12.2721C1.60748 10.8684 2.92867 10.2078 3.5067 9.96005C4.08472 9.71233 3.79151 11.2301 3.5067 11.8907C2.94709 13.1887 3.87409 13.5422 4.28696 13.2945C4.4961 13.169 5.03249 12.7263 5.43278 12.4185C5.63317 12.2643 5.74916 12.3823 5.64752 12.6138C4.33661 15.5991 6.49195 17.9523 5.24076 17.6395Z" fill="#B8EEC7"/>
</g>
</g>
</g>
</g>
<defs>
<linearGradient id="paint0_linear_62_1769" x1="11.1978" y1="7.01884" x2="12.4015" y2="20.0429" gradientUnits="userSpaceOnUse">
<stop stop-color="#60B176"/>
<stop offset="1" stop-color="#30A14F"/>
</linearGradient>
<linearGradient id="paint1_linear_62_1769" x1="4.93506" y1="-5.94596e-09" x2="7.09454" y2="19.8179" gradientUnits="userSpaceOnUse">
<stop stop-color="#60B176"/>
<stop offset="1" stop-color="#30A14F"/>
</linearGradient>
</defs>
</svg>
