<svg width="16" height="20" viewBox="0 0 16 20" fill="none" xmlns="http://www.w3.org/2000/svg">
<g id="Type=Mono">
<g id="Group 34424">
<g id="Group 34429">
<path id="Vector 801" d="M7.39885 16.2672C7.26673 14.5497 8.2246 12.4523 8.96777 11.5605C10.3975 9.84473 12.4619 7.59687 15.2695 7.01884C13.9483 10.487 15.2695 12.9642 15.2695 14.6157C15.2695 18.7445 11.0597 20.1757 8.80262 19.9831C8.38975 19.4601 7.53097 17.9848 7.39885 16.2672Z" fill="url(#paint0_linear_62_1676)"/>
<path id="Vector 804" d="M9.13441 16.4166C9.18838 17.3342 9.69662 17.9684 9.944 18.1708C10.4837 18.4406 11.1161 18.4634 12.2378 17.6985C13.7221 16.6865 12.4971 12.8595 10.8105 13.1294C9.1238 13.3992 9.06694 15.2697 9.13441 16.4166Z" fill="#C1C1C1"/>
</g>
<g id="Group 34408">
<path id="Vector 800" d="M0.462564 15.3589C1.59261 18.1664 5.94002 19.5977 7.72914 19.8179C7.20616 19.2674 6.22628 17.5058 6.49052 14.8634C6.82082 11.5605 10.2064 9.82639 10.2064 7.184C10.2724 4.27737 6.82082 1.18357 5.08675 0C5.33447 1.65149 4.50872 4.21131 2.44436 7.184C0.37999 10.1567 -0.667482 12.5514 0.462564 15.3589Z" fill="url(#paint1_linear_62_1676)"/>
<path id="Vector 806" d="M5.24076 17.6395C2.5158 16.7312 1.02946 14.5842 1.35975 12.2721C1.60748 10.8684 2.92867 10.2078 3.5067 9.96005C4.08472 9.71233 3.79151 11.2301 3.5067 11.8907C2.94709 13.1887 3.87409 13.5422 4.28696 13.2945C4.4961 13.169 5.03249 12.7263 5.43278 12.4185C5.63317 12.2643 5.74916 12.3823 5.64752 12.6138C4.33661 15.5991 6.49195 17.9523 5.24076 17.6395Z" fill="#C1C1C1"/>
</g>
</g>
</g>
<defs>
<linearGradient id="paint0_linear_62_1676" x1="11.1978" y1="7.01884" x2="12.4015" y2="20.0429" gradientUnits="userSpaceOnUse">
<stop stop-color="#424242"/>
<stop offset="1" stop-color="#1C1C1C"/>
</linearGradient>
<linearGradient id="paint1_linear_62_1676" x1="4.93506" y1="-5.94596e-09" x2="7.09454" y2="19.8179" gradientUnits="userSpaceOnUse">
<stop stop-color="#424242"/>
<stop offset="1" stop-color="#1C1C1C"/>
</linearGradient>
</defs>
</svg>
