<svg width="24" height="24" viewBox="0 0 24 24" fill="none" xmlns="http://www.w3.org/2000/svg">
<path d="M12.1819 11.3244L7.46008 15.7061C7.24894 15.902 7.00421 16 6.7259 16C6.44758 16 6.20285 15.902 5.99171 15.7061C5.78057 15.5102 5.675 15.2831 5.675 15.0248C5.675 14.7665 5.78384 14.5364 6.0015 14.3344L11.4621 9.26718C11.5658 9.17812 11.678 9.11132 11.799 9.06679C11.9199 9.02226 12.0495 9 12.1877 9C12.3259 9 12.4554 9.02226 12.5763 9.06679C12.6973 9.11132 12.8057 9.17812 12.9017 9.26718L18.3623 14.3344C18.58 14.5364 18.684 14.7621 18.6744 15.0115C18.6648 15.2608 18.5544 15.4835 18.3433 15.6794C18.1322 15.8753 17.8874 15.9733 17.6091 15.9733C17.3308 15.9733 17.0861 15.8753 16.8749 15.6794L12.1819 11.3244Z" fill="#9E9E9E"/>
</svg>
