<svg width="24" height="24" viewBox="0 0 24 24" fill="none" xmlns="http://www.w3.org/2000/svg">
<path d="M19.76 7.37001L13.62 2.54001C12.67 1.79001 11.33 1.79001 10.37 2.54001L4.23 7.37001C3.48 7.96001 3.04 8.88001 3.04 9.86001V17.82C3.04 19.55 4.38 20.95 6.04 20.95H7.56C8.66 20.95 9.56 20.05 9.56 18.95V15.83C9.56 14.56 10.47 13.4 11.74 13.28C13.19 13.13 14.42 14.27 14.42 15.7V18.95C14.42 20.05 15.32 20.95 16.42 20.95H17.94C19.6 20.95 20.94 19.55 20.94 17.82V9.86001C20.94 8.88001 20.5 7.96001 19.75 7.37001H19.76Z" fill="#9E9E9E"/>
</svg>
