<svg width="24" height="24" viewBox="0 0 24 24" fill="none" xmlns="http://www.w3.org/2000/svg">
<path d="M14.54 2.0498C14.93 2.04983 15.2402 2.36001 15.2402 2.75V3.95996H19.9404C20.4902 3.9602 20.9404 4.41012 20.9404 4.95996C20.9404 5.50982 20.4902 5.95973 19.9404 5.95996H19.9199L18.1396 20.2197C18.0197 21.2097 17.1701 21.9501 16.1602 21.9502H7.82031C6.82031 21.9502 5.95984 21.2097 5.83984 20.2197L4.05957 5.95996C3.50976 5.95973 3.05957 5.50982 3.05957 4.95996C3.05958 4.41012 3.50977 3.96019 4.05957 3.95996H8.76953V2.75C8.76953 2.36009 9.07985 2.04995 9.46973 2.0498H14.54ZM9.78027 8.16016C9.23027 8.16016 8.78027 8.61016 8.78027 9.16016V17.6602C8.78036 18.2101 9.23032 18.6602 9.78027 18.6602C10.3301 18.66 10.7802 18.21 10.7803 17.6602V9.16016C10.7803 8.61025 10.3301 8.16031 9.78027 8.16016ZM14.2402 8.16016C13.6902 8.16016 13.2402 8.61016 13.2402 9.16016V17.6602C13.2403 18.2101 13.6903 18.6602 14.2402 18.6602C14.7901 18.66 15.2402 18.21 15.2402 17.6602V9.16016C15.2402 8.61024 14.7901 8.16029 14.2402 8.16016Z" fill="#9E9E9E"/>
</svg>
