<svg width="24" height="24" viewBox="0 0 24 24" fill="none" xmlns="http://www.w3.org/2000/svg">
<path fill-rule="evenodd" clip-rule="evenodd" d="M9.2285 4.42454C10.9811 3.82961 12.8858 3.86078 14.618 4.51274C15.5202 4.85229 16.5496 5.52526 17.4385 6.26491C17.5608 6.36664 17.6825 6.47135 17.8027 6.57848V4.99998C17.8027 4.4477 18.2504 3.99998 18.8027 3.99998C19.3549 3.99998 19.8027 4.4477 19.8027 4.99998V9.24263C19.8027 9.79491 19.3549 10.2426 18.8027 10.2426H14.56C14.0077 10.2426 13.56 9.79491 13.56 9.24263C13.56 8.69034 14.0077 8.24263 14.56 8.24263H16.6597C16.5011 8.09486 16.3336 7.94735 16.1593 7.80232C15.3612 7.13822 14.527 6.61546 13.9135 6.38455C12.6144 5.89558 11.1858 5.8722 9.87138 6.3184C8.55692 6.76461 7.43783 7.65277 6.7048 8.83158C5.97178 10.0104 5.67016 11.4069 5.85135 12.7831C6.03254 14.1594 6.68532 15.4303 7.69846 16.3792C8.71161 17.3281 10.0224 17.8963 11.4076 17.9871C12.7928 18.0779 14.1665 17.6856 15.2949 16.8771C16.4232 16.0685 17.2363 14.8937 17.5956 13.5529C17.7385 13.0194 18.2869 12.7029 18.8203 12.8458C19.3538 12.9887 19.6704 13.5371 19.5274 14.0705C19.0484 15.8583 17.9643 17.4247 16.4598 18.5028C14.9554 19.5808 13.1237 20.1039 11.2768 19.9829C9.42991 19.8618 7.68214 19.1041 6.33128 17.8389C4.98042 16.5737 4.11004 14.8792 3.86846 13.0442C3.62688 11.2092 4.02903 9.34718 5.0064 7.77544C5.98377 6.2037 7.47588 5.01948 9.2285 4.42454Z" fill="#9E9E9E"/>
</svg>
