<svg width="24" height="24" viewBox="0 0 24 24" fill="none" xmlns="http://www.w3.org/2000/svg">
<path d="M8.25 12.9L12.6552 17.3053C12.8351 17.4851 12.925 17.6958 12.925 17.9375C12.925 18.1792 12.8333 18.3957 12.65 18.587C12.4667 18.7623 12.2542 18.85 12.0125 18.85C11.7708 18.85 11.5599 18.7598 11.3797 18.5795L5.435 12.6273C5.345 12.5371 5.27917 12.4394 5.2375 12.3342C5.19583 12.2291 5.175 12.1163 5.175 11.996C5.175 11.8758 5.19583 11.7631 5.2375 11.6578C5.27917 11.5526 5.34167 11.4583 5.425 11.375L11.375 5.425C11.5583 5.24167 11.7722 5.15 12.0167 5.15C12.2611 5.15 12.4722 5.24167 12.65 5.425C12.8333 5.60283 12.925 5.81392 12.925 6.05825C12.925 6.30275 12.8347 6.51533 12.654 6.696L8.25 11.1H18.3005C18.5553 11.1 18.769 11.1858 18.9415 11.3573C19.1138 11.5288 19.2 11.7413 19.2 11.9948C19.2 12.2483 19.1138 12.4625 18.9415 12.6375C18.769 12.8125 18.5553 12.9 18.3005 12.9H8.25Z" fill="#9E9E9E"/>
</svg>
