<svg width="24" height="24" viewBox="0 0 24 24" fill="none" xmlns="http://www.w3.org/2000/svg">
<path d="M13.95 5.80999V2.04999H7.05C5.39 2.04999 4.05 3.38999 4.05 5.04999V18.95C4.05 20.61 5.39 21.95 7.05 21.95H16.95C18.61 21.95 19.95 20.61 19.95 18.95V7.46999H15.62C14.7 7.46999 13.95 6.71999 13.95 5.79999V5.80999Z" fill="#9E9E9E"/>
<path d="M19.08 6.68999L15.31 3.27999L13.95 2.04999V5.80999C13.95 6.72999 14.7 7.47999 15.62 7.47999H19.95L19.08 6.68999Z" fill="white"/>
<path d="M15.77 12.29H8.24001C7.69001 12.29 7.24001 11.84 7.24001 11.29C7.24001 10.74 7.69001 10.29 8.24001 10.29H15.77C16.32 10.29 16.77 10.74 16.77 11.29C16.77 11.84 16.32 12.29 15.77 12.29Z" fill="white"/>
<path d="M15.77 16.26H8.24001C7.69001 16.26 7.24001 15.81 7.24001 15.26C7.24001 14.71 7.69001 14.26 8.24001 14.26H15.77C16.32 14.26 16.77 14.71 16.77 15.26C16.77 15.81 16.32 16.26 15.77 16.26Z" fill="white"/>
</svg>
