<svg width="24" height="24" viewBox="0 0 24 24" fill="none" xmlns="http://www.w3.org/2000/svg">
<path d="M13.3506 12.5069L8.9689 7.78508C8.77297 7.57394 8.675 7.32921 8.675 7.05089C8.675 6.77257 8.77297 6.52785 8.9689 6.31671C9.16482 6.10557 9.39192 6 9.65019 6C9.90846 6 10.1386 6.10883 10.3406 6.3265L15.4078 11.7871C15.4969 11.8908 15.5637 12.003 15.6082 12.124C15.6527 12.2449 15.675 12.3745 15.675 12.5127C15.675 12.6509 15.6527 12.7804 15.6082 12.9013C15.5637 13.0223 15.4969 13.1307 15.4078 13.2267L10.3406 18.6873C10.1386 18.905 9.91292 19.009 9.66355 18.9994C9.41419 18.9898 9.19154 18.8794 8.99561 18.6683C8.79968 18.4572 8.70172 18.2124 8.70172 17.9341C8.70172 17.6558 8.79968 17.4111 8.99561 17.1999L13.3506 12.5069Z" fill="#9E9E9E"/>
</svg>
