<svg width="24" height="24" viewBox="0 0 24 24" fill="none" xmlns="http://www.w3.org/2000/svg">
<path d="M13.41 12L16.95 8.46001C17.34 8.07001 17.34 7.44001 16.95 7.05001C16.56 6.66001 15.93 6.66001 15.54 7.05001L12 10.59L8.46001 7.05001C8.07001 6.66001 7.44001 6.66001 7.05001 7.05001C6.66001 7.44001 6.66001 8.07001 7.05001 8.46001L10.59 12L7.05001 15.54C6.66001 15.93 6.66001 16.56 7.05001 16.95C7.25001 17.15 7.50001 17.24 7.76001 17.24C8.02001 17.24 8.27001 17.14 8.47001 16.95L12.01 13.41L15.55 16.95C15.75 17.15 16 17.24 16.26 17.24C16.52 17.24 16.77 17.14 16.97 16.95C17.36 16.56 17.36 15.93 16.97 15.54L13.43 12H13.41Z" fill="#9E9E9E"/>
</svg>
