<svg width="24" height="24" viewBox="0 0 24 24" fill="none" xmlns="http://www.w3.org/2000/svg">
<path d="M12.1681 13.6756L16.8899 9.29389C17.1011 9.09796 17.3458 9 17.6241 9C17.9024 9 18.1472 9.09796 18.3583 9.29389C18.5694 9.48982 18.675 9.71692 18.675 9.97519C18.675 10.2335 18.5662 10.4636 18.3485 10.6656L12.8879 15.7328C12.7842 15.8219 12.672 15.8887 12.551 15.9332C12.4301 15.9777 12.3005 16 12.1624 16C12.0242 16 11.8946 15.9777 11.7737 15.9332C11.6527 15.8887 11.5443 15.8219 11.4483 15.7328L5.98771 10.6656C5.77005 10.4636 5.66601 10.2379 5.67561 9.98855C5.68521 9.73919 5.79558 9.51654 6.00671 9.32061C6.21785 9.12468 6.46258 9.02672 6.7409 9.02672C7.01922 9.02672 7.26394 9.12468 7.47508 9.32061L12.1681 13.6756Z" fill="#9E9E9E"/>
</svg>
