<svg width="20" height="20" viewBox="0 0 20 20" fill="none" xmlns="http://www.w3.org/2000/svg">
<path d="M10.0044 6.00001C9.79312 6.00001 9.61458 6.07188 9.46875 6.21563C9.32292 6.35938 9.25 6.53751 9.25 6.75001V10.25C9.25 10.4625 9.32146 10.6406 9.46437 10.7844C9.60729 10.9281 9.78437 11 9.99562 11C10.2069 11 10.3854 10.9281 10.5312 10.7844C10.6771 10.6406 10.75 10.4625 10.75 10.25L10.75 6.75001C10.75 6.53751 10.6785 6.35938 10.5356 6.21563C10.3927 6.07188 10.2156 6.00001 10.0044 6.00001ZM10.0044 12.5C9.79312 12.5 9.61458 12.5715 9.46875 12.7144C9.32292 12.8573 9.25 13.0344 9.25 13.2456C9.25 13.4569 9.32146 13.6354 9.46437 13.7813C9.60729 13.9271 9.78437 14 9.99562 14C10.2069 14 10.3854 13.9285 10.5312 13.7856C10.6771 13.6427 10.75 13.4656 10.75 13.2544C10.75 13.0431 10.6785 12.8646 10.5356 12.7188C10.3927 12.5729 10.2156 12.5 10.0044 12.5ZM9.99417 2.00001C11.0953 2.00001 12.1319 2.20834 13.1042 2.62501C14.0764 3.04167 14.9271 3.61459 15.6563 4.34376C16.3854 5.07292 16.9583 5.92334 17.375 6.89501C17.7917 7.86667 18 8.90487 18 10.0096C18 11.1143 17.7917 12.1493 17.375 13.1146C16.9583 14.0799 16.3854 14.9271 15.6562 15.6563C14.9271 16.3854 14.0767 16.9583 13.105 17.375C12.1333 17.7917 11.0951 18 9.99042 18C8.88569 18 7.85069 17.7917 6.88542 17.375C5.92014 16.9583 5.07292 16.3854 4.34375 15.6563C3.61458 14.9271 3.04167 14.0783 2.625 13.11C2.20833 12.1415 2 11.1068 2 10.0058C2 8.90473 2.20833 7.86806 2.625 6.89584C3.04167 5.92362 3.61458 5.07292 4.34375 4.34376C5.07292 3.61459 5.92167 3.04167 6.89 2.62501C7.85847 2.20834 8.89319 2.00001 9.99417 2.00001ZM10 3.50001C8.19444 3.50001 6.65972 4.13195 5.39583 5.39584C4.13194 6.65973 3.5 8.19445 3.5 10C3.5 11.8056 4.13194 13.3403 5.39583 14.6042C6.65972 15.8681 8.19444 16.5 10 16.5C11.8056 16.5 13.3403 15.8681 14.6042 14.6042C15.8681 13.3403 16.5 11.8056 16.5 10C16.5 8.19445 15.8681 6.65973 14.6042 5.39584C13.3403 4.13195 11.8056 3.50001 10 3.50001Z" fill="#9E9E9E"/>
</svg>
